<?xml version="1.0" encoding="UTF-8" standalone="no"?>
<!-- Created with Inkscape (http://www.inkscape.org/) -->

<svg
   xmlns:dc="http://purl.org/dc/elements/1.1/"
   xmlns:cc="http://creativecommons.org/ns#"
   xmlns:rdf="http://www.w3.org/1999/02/22-rdf-syntax-ns#"
   xmlns:svg="http://www.w3.org/2000/svg"
   xmlns="http://www.w3.org/2000/svg"
   xmlns:xlink="http://www.w3.org/1999/xlink"
   xmlns:sodipodi="http://sodipodi.sourceforge.net/DTD/sodipodi-0.dtd"
   xmlns:inkscape="http://www.inkscape.org/namespaces/inkscape"
   width="18.9"
   height="18.9"
   id="svg2"
   version="1.1"
   inkscape:version="0.48.4 r9939"
   sodipodi:docname="ezLCDPython.svg"
   inkscape:export-filename="C:\Users\codeman\Documents\GitHub\ezLCD3xxPython\doxygen\ezLCDPython.png"
   inkscape:export-xdpi="120.04366"
   inkscape:export-ydpi="120.04366">
  <defs
     id="defs4">
    <filter
       id="filter3117"
       inkscape:label="Drop Shadow"
       style="color-interpolation-filters:sRGB;">
      <feFlood
         id="feFlood3119"
         flood-opacity="0.5"
         flood-color="rgb(0,0,0)"
         result="flood" />
      <feComposite
         id="feComposite3121"
         in2="SourceGraphic"
         in="flood"
         operator="in"
         result="composite1" />
      <feGaussianBlur
         id="feGaussianBlur3123"
         stdDeviation="2"
         result="blur"
         in="composite" />
      <feOffset
         id="feOffset3125"
         dx="4"
         dy="4"
         result="offset" />
      <feComposite
         id="feComposite3127"
         in2="offset"
         in="SourceGraphic"
         operator="over"
         result="composite2" />
    </filter>
    <filter
       id="filter3129"
       inkscape:label="Drop Shadow"
       style="color-interpolation-filters:sRGB;">
      <feFlood
         id="feFlood3131"
         flood-opacity="0.5"
         flood-color="rgb(0,0,0)"
         result="flood" />
      <feComposite
         in2="SourceGraphic"
         id="feComposite3133"
         in="flood"
         operator="in"
         result="composite1" />
      <feGaussianBlur
         id="feGaussianBlur3135"
         stdDeviation="2"
         result="blur"
         in="composite" />
      <feOffset
         id="feOffset3137"
         dx="4"
         dy="4"
         result="offset" />
      <feComposite
         in2="offset"
         id="feComposite3139"
         in="SourceGraphic"
         operator="over"
         result="composite2" />
    </filter>
    <filter
       id="filter3319"
       inkscape:label="Drop Shadow"
       style="color-interpolation-filters:sRGB;">
      <feFlood
         id="feFlood3321"
         flood-opacity="0.2"
         flood-color="rgb(0,0,0)"
         result="flood" />
      <feComposite
         id="feComposite3323"
         in2="SourceGraphic"
         in="flood"
         operator="in"
         result="composite1" />
      <feGaussianBlur
         id="feGaussianBlur3325"
         stdDeviation="0.5"
         result="blur"
         in="composite" />
      <feOffset
         id="feOffset3327"
         dx="3.8"
         dy="3.8"
         result="offset" />
      <feComposite
         id="feComposite3329"
         in2="offset"
         in="SourceGraphic"
         operator="over"
         result="composite2" />
    </filter>
    <filter
       id="filter3331"
       inkscape:label="Drop Shadow"
       style="color-interpolation-filters:sRGB;">
      <feFlood
         id="feFlood3333"
         flood-opacity="0.2"
         flood-color="rgb(0,0,0)"
         result="flood" />
      <feComposite
         id="feComposite3335"
         in2="SourceGraphic"
         in="flood"
         operator="in"
         result="composite1" />
      <feGaussianBlur
         id="feGaussianBlur3337"
         stdDeviation="0.5"
         result="blur"
         in="composite" />
      <feOffset
         id="feOffset3339"
         dx="3.8"
         dy="3.8"
         result="offset" />
      <feComposite
         id="feComposite3341"
         in2="offset"
         in="SourceGraphic"
         operator="over"
         result="composite2" />
    </filter>
    <radialGradient
       r="15.64474"
       fy="36.421131"
       fx="24.83713"
       cy="36.421131"
       cx="24.83713"
       gradientTransform="matrix(1,0,0,0.536723,0,16.87306)"
       gradientUnits="userSpaceOnUse"
       id="imagebot_10"
       xlink:href="#imagebot_13" />
    <linearGradient
       id="imagebot_13">
      <stop
         stop-color="#000000"
         offset="0"
         id="imagebot_168" />
      <stop
         stop-color="#000000"
         stop-opacity="0"
         offset="1"
         id="imagebot_167" />
    </linearGradient>
    <radialGradient
       r="16.9562"
       fy="22.454969"
       fx="11.31921"
       cy="22.454969"
       cx="11.31921"
       gradientTransform="matrix(0,-0.843022,1.020168,0,0.1007837,-23.539238)"
       gradientUnits="userSpaceOnUse"
       id="imagebot_8"
       xlink:href="#imagebot_12" />
    <linearGradient
       id="imagebot_12">
      <stop
         stop-color="#729fcf"
         id="imagebot_48"
         offset="0" />
      <stop
         stop-color="#3465a4"
         id="imagebot_47"
         offset="1" />
    </linearGradient>
    <radialGradient
       r="17.17141"
       fy="0.40011001"
       fx="24.53788"
       cy="0.40011001"
       cx="24.53788"
       gradientTransform="matrix(0,-2.046729,1.55761,0,2.2613567,0.807372)"
       gradientUnits="userSpaceOnUse"
       id="imagebot_6"
       xlink:href="#imagebot_11" />
    <linearGradient
       id="imagebot_11">
      <stop
         stop-color="#ffffff"
         offset="0"
         id="imagebot_166" />
      <stop
         stop-color="#ffffff"
         stop-opacity="0"
         offset="1"
         id="imagebot_165" />
    </linearGradient>
    <radialGradient
       r="15.64474"
       fy="36.421131"
       fx="24.83713"
       cy="36.421131"
       cx="24.83713"
       gradientTransform="matrix(1,0,0,0.536723,0,16.87306)"
       gradientUnits="userSpaceOnUse"
       id="imagebot_10-1"
       xlink:href="#imagebot_13-7" />
    <linearGradient
       id="imagebot_13-7">
      <stop
         stop-color="#000000"
         offset="0"
         id="imagebot_168-4" />
      <stop
         stop-color="#000000"
         stop-opacity="0"
         offset="1"
         id="imagebot_167-0" />
    </linearGradient>
    <radialGradient
       r="16.9562"
       fy="22.454969"
       fx="11.31921"
       cy="22.454969"
       cx="11.31921"
       gradientTransform="matrix(0,-0.843022,1.020168,0,0.1007837,-23.539238)"
       gradientUnits="userSpaceOnUse"
       id="imagebot_8-9"
       xlink:href="#imagebot_12-4" />
    <linearGradient
       id="imagebot_12-4">
      <stop
         stop-color="#729fcf"
         id="imagebot_48-8"
         offset="0" />
      <stop
         stop-color="#3465a4"
         id="imagebot_47-8"
         offset="1" />
    </linearGradient>
    <radialGradient
       r="17.17141"
       fy="0.40011001"
       fx="24.53788"
       cy="0.40011001"
       cx="24.53788"
       gradientTransform="matrix(0,-2.046729,1.55761,0,2.2613567,0.807372)"
       gradientUnits="userSpaceOnUse"
       id="imagebot_6-2"
       xlink:href="#imagebot_11-4" />
    <linearGradient
       id="imagebot_11-4">
      <stop
         stop-color="#ffffff"
         offset="0"
         id="imagebot_166-5" />
      <stop
         stop-color="#ffffff"
         stop-opacity="0"
         offset="1"
         id="imagebot_165-5" />
    </linearGradient>
    <radialGradient
       r="15.64474"
       fy="36.421131"
       fx="24.83713"
       cy="36.421131"
       cx="24.83713"
       gradientTransform="matrix(1,0,0,0.536723,0,16.87306)"
       gradientUnits="userSpaceOnUse"
       id="imagebot_10-8"
       xlink:href="#imagebot_13-0" />
    <linearGradient
       id="imagebot_13-0">
      <stop
         stop-color="#000000"
         offset="0"
         id="imagebot_168-6" />
      <stop
         stop-color="#000000"
         stop-opacity="0"
         offset="1"
         id="imagebot_167-8" />
    </linearGradient>
    <radialGradient
       r="16.9562"
       fy="22.454969"
       fx="11.31921"
       cy="22.454969"
       cx="11.31921"
       gradientTransform="matrix(0,-0.843022,1.020168,0,0.1007837,-23.539238)"
       gradientUnits="userSpaceOnUse"
       id="imagebot_8-1"
       xlink:href="#imagebot_12-9" />
    <linearGradient
       id="imagebot_12-9">
      <stop
         stop-color="#729fcf"
         id="imagebot_48-89"
         offset="0" />
      <stop
         stop-color="#3465a4"
         id="imagebot_47-7"
         offset="1" />
    </linearGradient>
    <radialGradient
       r="17.17141"
       fy="0.40011001"
       fx="24.53788"
       cy="0.40011001"
       cx="24.53788"
       gradientTransform="matrix(0,-2.046729,1.55761,0,2.2613567,0.807372)"
       gradientUnits="userSpaceOnUse"
       id="imagebot_6-22"
       xlink:href="#imagebot_11-8" />
    <linearGradient
       id="imagebot_11-8">
      <stop
         stop-color="#ffffff"
         offset="0"
         id="imagebot_166-2" />
      <stop
         stop-color="#ffffff"
         stop-opacity="0"
         offset="1"
         id="imagebot_165-8" />
    </linearGradient>
    <radialGradient
       r="15.64474"
       fy="36.421131"
       fx="24.83713"
       cy="36.421131"
       cx="24.83713"
       gradientTransform="matrix(1,0,0,0.536723,0,16.87306)"
       gradientUnits="userSpaceOnUse"
       id="imagebot_10-8-6"
       xlink:href="#imagebot_13-0-1" />
    <linearGradient
       id="imagebot_13-0-1">
      <stop
         stop-color="#000000"
         offset="0"
         id="imagebot_168-6-2" />
      <stop
         stop-color="#000000"
         stop-opacity="0"
         offset="1"
         id="imagebot_167-8-4" />
    </linearGradient>
    <radialGradient
       r="16.9562"
       fy="22.454969"
       fx="11.31921"
       cy="22.454969"
       cx="11.31921"
       gradientTransform="matrix(0,-0.843022,1.020168,0,0.1007837,-23.539238)"
       gradientUnits="userSpaceOnUse"
       id="imagebot_8-1-2"
       xlink:href="#imagebot_12-9-5" />
    <linearGradient
       id="imagebot_12-9-5">
      <stop
         stop-color="#729fcf"
         id="imagebot_48-89-8"
         offset="0" />
      <stop
         stop-color="#3465a4"
         id="imagebot_47-7-6"
         offset="1" />
    </linearGradient>
    <radialGradient
       r="17.17141"
       fy="0.40011001"
       fx="24.53788"
       cy="0.40011001"
       cx="24.53788"
       gradientTransform="matrix(0,-2.046729,1.55761,0,2.2613567,0.807372)"
       gradientUnits="userSpaceOnUse"
       id="imagebot_6-22-2"
       xlink:href="#imagebot_11-8-6" />
    <linearGradient
       id="imagebot_11-8-6">
      <stop
         stop-color="#ffffff"
         offset="0"
         id="imagebot_166-2-5" />
      <stop
         stop-color="#ffffff"
         stop-opacity="0"
         offset="1"
         id="imagebot_165-8-3" />
    </linearGradient>
    <radialGradient
       r="15.64474"
       fy="36.421131"
       fx="24.83713"
       cy="36.421131"
       cx="24.83713"
       gradientTransform="matrix(1,0,0,0.536723,0,16.87306)"
       gradientUnits="userSpaceOnUse"
       id="imagebot_10-8-1"
       xlink:href="#imagebot_13-0-19" />
    <linearGradient
       id="imagebot_13-0-19">
      <stop
         stop-color="#000000"
         offset="0"
         id="imagebot_168-6-7" />
      <stop
         stop-color="#000000"
         stop-opacity="0"
         offset="1"
         id="imagebot_167-8-6" />
    </linearGradient>
    <radialGradient
       r="16.9562"
       fy="22.454969"
       fx="11.31921"
       cy="22.454969"
       cx="11.31921"
       gradientTransform="matrix(0,-0.843022,1.020168,0,0.1007837,-23.539238)"
       gradientUnits="userSpaceOnUse"
       id="imagebot_8-1-29"
       xlink:href="#imagebot_12-9-52" />
    <linearGradient
       id="imagebot_12-9-52">
      <stop
         stop-color="#729fcf"
         id="imagebot_48-89-0"
         offset="0" />
      <stop
         stop-color="#3465a4"
         id="imagebot_47-7-0"
         offset="1" />
    </linearGradient>
    <radialGradient
       r="17.17141"
       fy="0.40011001"
       fx="24.53788"
       cy="0.40011001"
       cx="24.53788"
       gradientTransform="matrix(0,-2.046729,1.55761,0,2.2613567,0.807372)"
       gradientUnits="userSpaceOnUse"
       id="imagebot_6-22-3"
       xlink:href="#imagebot_11-8-9" />
    <linearGradient
       id="imagebot_11-8-9">
      <stop
         stop-color="#ffffff"
         offset="0"
         id="imagebot_166-2-1" />
      <stop
         stop-color="#ffffff"
         stop-opacity="0"
         offset="1"
         id="imagebot_165-8-8" />
    </linearGradient>
    <radialGradient
       r="15.64474"
       fy="36.421131"
       fx="24.83713"
       cy="36.421131"
       cx="24.83713"
       gradientTransform="matrix(1,0,0,0.536723,0,16.87306)"
       gradientUnits="userSpaceOnUse"
       id="imagebot_10-8-1-9"
       xlink:href="#imagebot_13-0-19-6" />
    <linearGradient
       id="imagebot_13-0-19-6">
      <stop
         stop-color="#000000"
         offset="0"
         id="imagebot_168-6-7-7" />
      <stop
         stop-color="#000000"
         stop-opacity="0"
         offset="1"
         id="imagebot_167-8-6-9" />
    </linearGradient>
    <radialGradient
       r="16.9562"
       fy="22.454969"
       fx="11.31921"
       cy="22.454969"
       cx="11.31921"
       gradientTransform="matrix(0,-0.843022,1.020168,0,0.1007837,-23.539238)"
       gradientUnits="userSpaceOnUse"
       id="imagebot_8-1-29-9"
       xlink:href="#imagebot_12-9-52-7" />
    <linearGradient
       id="imagebot_12-9-52-7">
      <stop
         stop-color="#729fcf"
         id="imagebot_48-89-0-6"
         offset="0" />
      <stop
         stop-color="#3465a4"
         id="imagebot_47-7-0-9"
         offset="1" />
    </linearGradient>
    <radialGradient
       r="17.17141"
       fy="0.40011001"
       fx="24.53788"
       cy="0.40011001"
       cx="24.53788"
       gradientTransform="matrix(0,-2.046729,1.55761,0,2.2613567,0.807372)"
       gradientUnits="userSpaceOnUse"
       id="imagebot_6-22-3-3"
       xlink:href="#imagebot_11-8-9-5" />
    <linearGradient
       id="imagebot_11-8-9-5">
      <stop
         stop-color="#ffffff"
         offset="0"
         id="imagebot_166-2-1-7" />
      <stop
         stop-color="#ffffff"
         stop-opacity="0"
         offset="1"
         id="imagebot_165-8-8-6" />
    </linearGradient>
    <radialGradient
       gradientTransform="matrix(2.382716e-8,-0.296405,1.43676,4.683673e-7,-128.544,150.5202)"
       gradientUnits="userSpaceOnUse"
       xlink:href="#linearGradient2795"
       id="radialGradient1480"
       fy="132.28575"
       fx="61.518883"
       r="29.036913"
       cy="132.28575"
       cx="61.518883" />
    <linearGradient
       gradientTransform="matrix(0.562541,0,0,0.567972,-9.399749,-5.305317)"
       gradientUnits="userSpaceOnUse"
       xlink:href="#linearGradient4689"
       id="linearGradient1478"
       y2="114.39767"
       x2="135.66525"
       y1="20.603781"
       x1="26.648937" />
    <linearGradient
       gradientTransform="matrix(0.562541,0,0,0.567972,-9.399749,-5.305317)"
       gradientUnits="userSpaceOnUse"
       xlink:href="#linearGradient4671"
       id="linearGradient1475"
       y2="137.27299"
       x2="112.03144"
       y1="192.35176"
       x1="150.96111" />
    <radialGradient
       gradientTransform="matrix(1,0,0,0.177966,0,108.7434)"
       gradientUnits="userSpaceOnUse"
       xlink:href="#linearGradient2795"
       id="radialGradient2801"
       fy="132.28575"
       fx="61.518883"
       r="29.036913"
       cy="132.28575"
       cx="61.518883" />
    <linearGradient
       gradientTransform="matrix(0.562541,0,0,0.567972,-11.5974,-7.60954)"
       gradientUnits="userSpaceOnUse"
       xlink:href="#linearGradient4689"
       id="linearGradient2258"
       y2="76.313133"
       x2="26.670298"
       y1="76.176224"
       x1="172.94208" />
    <linearGradient
       gradientTransform="matrix(0.562541,0,0,0.567972,-11.5974,-7.60954)"
       gradientUnits="userSpaceOnUse"
       xlink:href="#linearGradient4671"
       id="linearGradient2255"
       y2="144.75717"
       x2="-65.308502"
       y1="144.75717"
       x1="224.23996" />
    <linearGradient
       gradientTransform="translate(100.2702,99.61116)"
       gradientUnits="userSpaceOnUse"
       xlink:href="#linearGradient4671"
       id="linearGradient2250"
       y2="144.75717"
       x2="-65.308502"
       y1="144.75717"
       x1="224.23996" />
    <linearGradient
       gradientTransform="translate(100.2702,99.61116)"
       gradientUnits="userSpaceOnUse"
       xlink:href="#linearGradient4689"
       id="linearGradient2248"
       y2="76.313133"
       x2="26.670298"
       y1="77.475983"
       x1="172.94208" />
    <linearGradient
       gradientTransform="translate(100.2702,99.61116)"
       gradientUnits="userSpaceOnUse"
       xlink:href="#linearGradient4671"
       id="linearGradient2589"
       y2="144.75717"
       x2="-65.308502"
       y1="144.75717"
       x1="224.23996" />
    <linearGradient
       gradientTransform="translate(100.2702,99.61116)"
       gradientUnits="userSpaceOnUse"
       xlink:href="#linearGradient4689"
       id="linearGradient2587"
       y2="76.313133"
       x2="26.670298"
       y1="77.475983"
       x1="172.94208" />
    <linearGradient
       gradientTransform="translate(100.2702,99.61116)"
       gradientUnits="userSpaceOnUse"
       xlink:href="#linearGradient4689"
       id="linearGradient2990"
       y2="76.313133"
       x2="26.670298"
       y1="77.475983"
       x1="172.94208" />
    <linearGradient
       gradientTransform="translate(100.2702,99.61116)"
       gradientUnits="userSpaceOnUse"
       xlink:href="#linearGradient4671"
       id="linearGradient2987"
       y2="144.75717"
       x2="-65.308502"
       y1="144.75717"
       x1="224.23996" />
    <linearGradient
       id="linearGradient4689">
      <stop
         id="stop4691"
         offset="0"
         style="stop-color:#5a9fd4;stop-opacity:1" />
      <stop
         id="stop4693"
         offset="1"
         style="stop-color:#306998;stop-opacity:1" />
    </linearGradient>
    <linearGradient
       id="linearGradient4671">
      <stop
         id="stop4673"
         offset="0"
         style="stop-color:#ffd43b;stop-opacity:1" />
      <stop
         id="stop4675"
         offset="1"
         style="stop-color:#ffe873;stop-opacity:1" />
    </linearGradient>
    <linearGradient
       id="linearGradient3236">
      <stop
         id="stop3244"
         offset="0"
         style="stop-color:#f4f4f4;stop-opacity:1" />
      <stop
         id="stop3240"
         offset="1"
         style="stop-color:#ffffff;stop-opacity:1" />
    </linearGradient>
    <linearGradient
       id="linearGradient3676">
      <stop
         id="stop3678"
         offset="0"
         style="stop-color:#b2b2b2;stop-opacity:0.5" />
      <stop
         id="stop3680"
         offset="1"
         style="stop-color:#b3b3b3;stop-opacity:0" />
    </linearGradient>
    <linearGradient
       id="linearGradient2787">
      <stop
         id="stop2789"
         offset="0"
         style="stop-color:#7f7f7f;stop-opacity:0.5" />
      <stop
         id="stop2791"
         offset="1"
         style="stop-color:#7f7f7f;stop-opacity:0" />
    </linearGradient>
    <linearGradient
       id="linearGradient2795">
      <stop
         id="stop2797"
         offset="0"
         style="stop-color:#b8b8b8;stop-opacity:0.49803922" />
      <stop
         id="stop2799"
         offset="1"
         style="stop-color:#7f7f7f;stop-opacity:0" />
    </linearGradient>
    <radialGradient
       inkscape:collect="always"
       xlink:href="#linearGradient2795"
       id="radialGradient10947"
       gradientUnits="userSpaceOnUse"
       gradientTransform="matrix(0,-0.11345187,0.56704945,1.7927209e-7,351.57325,194.80866)"
       cx="61.518883"
       cy="132.28575"
       fx="61.518883"
       fy="132.28575"
       r="29.036913" />
    <linearGradient
       inkscape:collect="always"
       xlink:href="#linearGradient4671"
       id="linearGradient10951"
       gradientUnits="userSpaceOnUse"
       gradientTransform="matrix(0.30245399,0,0,0.26854887,388.51547,121.91656)"
       x1="150.96111"
       y1="192.35176"
       x2="112.03144"
       y2="137.27299" />
    <linearGradient
       inkscape:collect="always"
       xlink:href="#linearGradient4689"
       id="linearGradient10954"
       gradientUnits="userSpaceOnUse"
       gradientTransform="matrix(0.30245399,0,0,0.26854887,388.51547,121.91656)"
       x1="26.648937"
       y1="20.603781"
       x2="135.66525"
       y2="114.39767" />
    <linearGradient
       inkscape:collect="always"
       xlink:href="#linearGradient4689"
       id="linearGradient11000"
       gradientUnits="userSpaceOnUse"
       gradientTransform="matrix(0.30245399,0,0,0.26854887,388.51547,121.91656)"
       x1="26.648937"
       y1="20.603781"
       x2="135.66525"
       y2="114.39767" />
    <linearGradient
       inkscape:collect="always"
       xlink:href="#linearGradient4671"
       id="linearGradient11002"
       gradientUnits="userSpaceOnUse"
       gradientTransform="matrix(0.30245399,0,0,0.26854887,388.51547,121.91656)"
       x1="150.96111"
       y1="192.35176"
       x2="112.03144"
       y2="137.27299" />
    <radialGradient
       inkscape:collect="always"
       xlink:href="#linearGradient2795"
       id="radialGradient11004"
       gradientUnits="userSpaceOnUse"
       gradientTransform="matrix(0,-0.11345187,0.56704945,1.7927209e-7,351.57325,194.80866)"
       cx="61.518883"
       cy="132.28575"
       fx="61.518883"
       fy="132.28575"
       r="29.036913" />
    <radialGradient
       inkscape:collect="always"
       xlink:href="#linearGradient2795"
       id="radialGradient11018"
       gradientUnits="userSpaceOnUse"
       gradientTransform="matrix(0,-0.11345187,0.56704945,1.7927209e-7,332.30405,205.59941)"
       cx="61.518883"
       cy="132.28575"
       fx="61.518883"
       fy="132.28575"
       r="29.036913" />
    <linearGradient
       inkscape:collect="always"
       xlink:href="#linearGradient4671"
       id="linearGradient11022"
       gradientUnits="userSpaceOnUse"
       gradientTransform="matrix(0.30245399,0,0,0.26854887,369.24627,132.70731)"
       x1="150.96111"
       y1="192.35176"
       x2="112.03144"
       y2="137.27299" />
    <linearGradient
       inkscape:collect="always"
       xlink:href="#linearGradient4689"
       id="linearGradient11025"
       gradientUnits="userSpaceOnUse"
       gradientTransform="matrix(0.30245399,0,0,0.26854887,369.24627,132.70731)"
       x1="26.648937"
       y1="20.603781"
       x2="135.66525"
       y2="114.39767" />
  </defs>
  <sodipodi:namedview
     id="base"
     pagecolor="#ffffff"
     bordercolor="#666666"
     borderopacity="1.0"
     inkscape:pageopacity="0.0"
     inkscape:pageshadow="2"
     inkscape:zoom="1.603119"
     inkscape:cx="278.91006"
     inkscape:cy="-32.555592"
     inkscape:document-units="in"
     inkscape:current-layer="layer1"
     showgrid="false"
     inkscape:window-width="1730"
     inkscape:window-height="1081"
     inkscape:window-x="25"
     inkscape:window-y="25"
     inkscape:window-maximized="0"
     units="in"
     fit-margin-top="0"
     fit-margin-left="0"
     fit-margin-right="0"
     fit-margin-bottom="0"
     inkscape:snap-grids="false"
     inkscape:snap-to-guides="false">
    <inkscape:grid
       type="xygrid"
       id="grid3104"
       empspacing="5"
       visible="true"
       enabled="true"
       snapvisiblegridlinesonly="true"
       units="in"
       spacingx="0.001in"
       spacingy="0.001in"
       dotted="false"
       originx="-3.7715435in"
       originy="-8.6327716in"
       color="#000012"
       opacity="0.1254902" />
  </sodipodi:namedview>
  <metadata
     id="metadata7">
    <rdf:RDF>
      <cc:Work
         rdf:about="">
        <dc:format>image/svg+xml</dc:format>
        <dc:type
           rdf:resource="http://purl.org/dc/dcmitype/StillImage" />
        <dc:title />
      </cc:Work>
    </rdf:RDF>
  </metadata>
  <g
     inkscape:label="Layer 1"
     inkscape:groupmode="layer"
     id="layer1"
     transform="translate(-339.43891,-256.51255)"
     style="display:inline">
    <g
       id="g3063"
       transform="translate(0.1974108,-0.2961162)" />
    <flowRoot
       xml:space="preserve"
       id="flowRoot4538"
       style="font-size:40px;font-style:normal;font-weight:normal;line-height:125%;letter-spacing:0px;word-spacing:0px;fill:#000000;fill-opacity:1;stroke:none;font-family:Sans"
       transform="translate(339.43891,256.51255)"><flowRegion
         id="flowRegion4540"><rect
           id="rect4542"
           width="17.872051"
           height="157.46727"
           x="381.10944"
           y="-172.86229" /></flowRegion><flowPara
         id="flowPara4544">Y</flowPara></flowRoot>    <g
       id="g14103">
      <rect
         style="fill:#ffeeaa;filter:url(#filter3129)"
         id="rect2989"
         width="367.20001"
         height="226.44"
         x="320.36713"
         y="59.491539" />
      <rect
         y="67.604683"
         x="368.94727"
         height="226.44"
         width="272.60999"
         id="rect2991"
         style="fill:#e6e6e6;filter:url(#filter3117)" />
      <rect
         y="67.510475"
         x="369.29388"
         height="218.25"
         width="272.42999"
         id="rect2993"
         style="fill:#000000;filter:url(#filter3331);fill-opacity:1" />
      <g
         transform="translate(-19.071789,10.494636)"
         style="filter:url(#filter3319)"
         id="g3305">
        <g
           id="g3088"
           transform="translate(126.19266,-79.346594)">
          <path
             transform="matrix(1.2705415,0,0,1.2705415,-59.747643,-45.717055)"
             d="m 235.72021,161.54576 c 0,4.10777 -3.33,7.43777 -7.43777,7.43777 -4.10777,0 -7.43777,-3.33 -7.43777,-7.43777 0,-4.10777 3.33,-7.43777 7.43777,-7.43777 4.10777,0 7.43777,3.33 7.43777,7.43777 z"
             sodipodi:ry="7.4377737"
             sodipodi:rx="7.4377737"
             sodipodi:cy="161.54576"
             sodipodi:cx="228.28244"
             id="path3031"
             style="fill:#e6e6e6"
             sodipodi:type="arc" />
          <path
             transform="matrix(1.5230769,0,0,1.2375,-120.41784,-38.121773)"
             d="m 233.5,159.86218 c 0,2.20914 -1.45507,4 -3.25,4 -1.79493,0 -3.25,-1.79086 -3.25,-4 0,-2.20914 1.45507,-4 3.25,-4 1.79493,0 3.25,1.79086 3.25,4 z"
             sodipodi:ry="4"
             sodipodi:rx="3.25"
             sodipodi:cy="159.86218"
             sodipodi:cx="230.25"
             id="path3039"
             style="fill:#1a1a1a"
             sodipodi:type="arc" />
        </g>
        <g
           id="g3092"
           transform="translate(128.81993,-95.33469)"
           inkscape:transform-center-x="-5.9889144">
          <path
             transform="matrix(1.101136,0,0,1.1261618,-22.181034,-44.080566)"
             d="m 236.48306,341.00589 c 0,4.63441 -3.84231,8.39133 -8.58204,8.39133 -4.73974,0 -8.58205,-3.75692 -8.58205,-8.39133 0,-4.63441 3.84231,-8.39133 8.58205,-8.39133 4.73973,0 8.58204,3.75692 8.58204,8.39133 z"
             sodipodi:ry="8.3913345"
             sodipodi:rx="8.5820465"
             sodipodi:cy="341.00589"
             sodipodi:cx="227.90102"
             id="path3033"
             style="fill:#e6e6e6"
             sodipodi:type="arc" />
          <path
             transform="matrix(1.4142857,0,0,1.2375,-95.821493,-81.911773)"
             d="m 233,340.86218 c 0,2.20914 -1.567,4 -3.5,4 -1.933,0 -3.5,-1.79086 -3.5,-4 0,-2.20914 1.567,-4 3.5,-4 1.933,0 3.5,1.79086 3.5,4 z"
             sodipodi:ry="4"
             sodipodi:rx="3.5"
             sodipodi:cy="340.86218"
             sodipodi:cx="229.5"
             id="path3041"
             style="fill:#1a1a1a"
             sodipodi:type="arc" />
        </g>
        <g
           id="g3100"
           transform="translate(134.28038,-100.83166)">
          <path
             transform="matrix(1.238778,0,0,1.3392194,-130.05612,-120.07496)"
             d="m 559.93085,346.91797 c 0,3.89711 -3.41539,7.05635 -7.62848,7.05635 -4.2131,0 -7.62849,-3.15924 -7.62849,-7.05635 0,-3.89712 3.41539,-7.05635 7.62849,-7.05635 4.21309,0 7.62848,3.15923 7.62848,7.05635 z"
             sodipodi:ry="7.0563493"
             sodipodi:rx="7.6284857"
             sodipodi:cy="346.91797"
             sodipodi:cx="552.30237"
             id="path3035"
             style="fill:#e6e6e6"
             sodipodi:type="arc" />
          <path
             transform="matrix(1.5230769,0,0,1.4142857,-290.69422,-141.58117)"
             d="m 558,343.86218 c 0,1.933 -1.45507,3.5 -3.25,3.5 -1.79493,0 -3.25,-1.567 -3.25,-3.5 0,-1.93299 1.45507,-3.5 3.25,-3.5 1.79493,0 3.25,1.56701 3.25,3.5 z"
             sodipodi:ry="3.5"
             sodipodi:rx="3.25"
             sodipodi:cy="343.86218"
             sodipodi:cx="554.75"
             id="path3043"
             style="fill:#1a1a1a"
             sodipodi:type="arc" />
        </g>
        <g
           id="g3096"
           transform="translate(135.65429,-80.870686)"
           inkscape:transform-center-x="-1.7781797">
          <path
             transform="matrix(1.1261618,0,0,1.3392194,-68.428284,-55.063727)"
             d="m 559.16801,161.16434 c 0,3.89711 -3.75693,7.05635 -8.39134,7.05635 -4.6344,0 -8.39133,-3.15924 -8.39133,-7.05635 0,-3.89712 3.75693,-7.05635 8.39133,-7.05635 4.63441,0 8.39134,3.15923 8.39134,7.05635 z"
             sodipodi:ry="7.0563493"
             sodipodi:rx="8.3913345"
             sodipodi:cy="161.16434"
             sodipodi:cx="550.77667"
             id="path3037"
             style="fill:#e6e6e6"
             sodipodi:type="arc" />
          <path
             transform="matrix(1.1647059,0,0,1.1,-91.944783,-18.825459)"
             d="m 557,163.36218 c 0,2.48528 -1.90279,4.5 -4.25,4.5 -2.34721,0 -4.25,-2.01472 -4.25,-4.5 0,-2.48528 1.90279,-4.5 4.25,-4.5 2.34721,0 4.25,2.01472 4.25,4.5 z"
             sodipodi:ry="4.5"
             sodipodi:rx="4.25"
             sodipodi:cy="163.36218"
             sodipodi:cx="552.75"
             id="path3045"
             style="fill:#1a1a1a"
             sodipodi:type="arc" />
        </g>
      </g>
      <rect
         y="68.609344"
         x="370.73184"
         height="1.8"
         width="268.26196"
         id="rect3363"
         style="fill:#e3dedb" />
      <rect
         y="68.568405"
         x="638.51416"
         height="216.22566"
         width="1.7590195"
         id="rect3365"
         style="fill:#e3dedb" />
      <rect
         y="277.99274"
         x="370.74026"
         height="1.8"
         width="269.28275"
         id="rect3367"
         style="fill:#e3dedb" />
      <rect
         y="68.582741"
         x="369.96078"
         height="211.27626"
         width="1.8"
         id="rect3369"
         style="fill:#e3dedb" />
      <path
         inkscape:connector-curvature="0"
         id="rect3371"
         d="m 523.60721,280.90696 0,4.0625 116.65625,0 0,-4.0625 -116.65625,0 z"
         style="fill:#e3dedb" />
      <rect
         y="279.41776"
         x="524.26111"
         height="15.52403"
         width="2.97"
         id="rect3374"
         style="fill:#e3dedb" />
      <rect
         y="279.51648"
         x="528.83667"
         height="15.384439"
         width="2.97"
         id="rect3376"
         style="fill:#e3dedb" />
      <rect
         y="279.37689"
         x="533.89581"
         height="15.52403"
         width="2.97"
         id="rect3378"
         style="fill:#e3dedb" />
      <rect
         y="284.82092"
         x="538.71631"
         height="10.090947"
         width="2.97"
         id="rect3380"
         style="fill:#e3dedb" />
      <rect
         y="285.19275"
         x="523.61078"
         height="10.44"
         width="18.360001"
         id="rect3043"
         style="fill:#ec970f;fill-opacity:0.50264551" />
      <path
         d="m 473.55878,164.49725 c 0,-6.88529 -2.23249,-10.4201 -6.69747,-10.61367 -1.77656,-0.0737 -3.5112,0.17513 -5.19867,0.75121 -1.34683,0.424 -2.25345,0.84338 -2.73034,1.26737 l 0,16.43436 c 2.85611,1.57615 5.39256,2.30892 7.60409,2.19371 4.67985,-0.27191 7.02239,-3.61316 7.02239,-10.03298 z m 5.50786,0.28573 c 0,3.49795 -0.93282,6.40139 -2.80896,8.71031 -2.09099,2.61309 -4.98904,3.9588 -8.69413,4.03255 -2.79324,0.0783 -5.67032,-0.6913 -8.63125,-2.30432 l 0,14.93655 -4.7899,-1.50241 0,-33.15445 c 0.78608,-0.84798 1.79752,-1.57614 3.02382,-2.1937 2.85088,-1.46094 6.31491,-2.21214 10.39209,-2.24901 l 0.0681,0.0599 c 3.72606,-0.0415 6.59791,1.30424 8.61553,4.03255 1.88137,2.50248 2.82468,5.71009 2.82468,9.63202 z"
         style="fill:#646464;fill-opacity:1"
         id="path46"
         inkscape:connector-curvature="0" />
      <path
         d="m 508.34057,174.58553 c 0,4.69158 -0.53454,7.94066 -1.60362,9.74724 -1.07432,1.80658 -3.11815,3.24908 -6.13673,4.32289 -2.44736,0.84799 -5.09385,1.30885 -7.93425,1.3872 l -0.79133,-2.65457 c 2.88756,-0.34565 4.92092,-0.6913 6.10005,-1.03694 2.32158,-0.69129 3.91472,-1.75128 4.78989,-3.17074 0.70224,-1.15676 1.04812,-3.36429 1.04812,-6.63181 l 0,-1.09685 c -3.27536,1.30885 -6.70795,1.95867 -10.29775,1.95867 -2.35827,0 -4.43879,-0.64982 -6.23106,-1.95867 -2.0124,-1.42407 -3.01859,-3.23065 -3.01859,-5.41974 l 0,-17.53121 4.7899,-1.4425 0,17.64642 c 0,1.88493 0.69176,3.33665 2.07528,4.35516 1.38351,1.0185 3.17579,1.50701 5.3716,1.47015 2.19581,-0.0415 4.54883,-0.78808 7.04859,-2.24901 l 0,-20.58673 4.7899,0 0,22.89104 z"
         style="fill:#646464;fill-opacity:1"
         id="path48"
         inkscape:connector-curvature="0" />
      <path
         d="m 527.03899,177.2954 c -0.57122,0.0415 -1.09528,0.0599 -1.57741,0.0599 -2.70939,0 -4.82135,-0.56686 -6.33064,-1.70519 -1.50405,-1.13833 -2.25869,-2.70987 -2.25869,-4.71462 l 0,-16.59105 -3.28061,0 0,-2.64996 3.28061,0 0,-7.03737 4.78466,-1.49781 0,8.53518 5.38208,0 0,2.64996 -5.38208,0 0,16.47583 c 0,1.58076 0.48213,2.70066 1.4464,3.35508 0.82802,0.53921 2.1434,0.84799 3.93568,0.92634 l 0,2.1937 z"
         style="fill:#646464;fill-opacity:1"
         id="path50"
         inkscape:connector-curvature="0" />
      <path
         d="m 556.04041,176.94976 -4.7899,0 0,-16.25923 c 0,-1.6545 -0.44021,-3.07857 -1.31538,-4.26759 -1.01144,-1.34572 -2.41592,-2.01858 -4.21868,-2.01858 -2.19581,0 -4.94188,1.01851 -8.2382,3.05552 l 0,19.48988 -4.7899,0 0,-38.86454 4.7899,-1.32728 0,17.70172 c 3.0605,-1.95866 6.40399,-2.9403 10.03572,-2.9403 2.53645,0 4.59076,0.75121 6.16293,2.24901 1.57742,1.4978 2.36351,3.3643 2.36351,5.59487 l 0,17.58652 0,0 z"
         style="fill:#646464;fill-opacity:1"
         id="path52"
         inkscape:connector-curvature="0" />
      <path
         d="m 581.49919,163.83361 c 0,-2.64535 -0.57122,-4.82984 -1.70843,-6.55808 -1.35207,-2.10614 -3.45354,-3.21682 -6.29395,-3.33203 -5.25106,0.2673 -7.87136,3.57629 -7.87136,9.91776 0,2.90804 0.54502,5.33679 1.64554,7.28623 1.40448,2.48405 3.5112,3.70995 6.32016,3.66847 5.27203,-0.0369 7.90804,-3.69612 7.90804,-10.98235 z m 5.24584,0.0277 c 0,3.76525 -1.09528,6.89911 -3.28061,9.4016 -2.40543,2.80204 -5.72797,4.20767 -9.96761,4.20767 -4.20294,0 -7.47831,-1.40563 -9.84182,-4.20767 -2.1434,-2.50249 -3.21248,-5.63635 -3.21248,-9.4016 0,-3.53942 1.15817,-6.5166 3.47451,-8.94073 2.44736,-2.57162 5.66508,-3.86203 9.64268,-3.86203 3.97761,0 7.21629,1.29041 9.71082,3.86203 2.31633,2.42413 3.47451,5.40131 3.47451,8.94073 z"
         style="fill:#646464;fill-opacity:1"
         id="path54"
         inkscape:connector-curvature="0" />
      <path
         d="m 614.20571,176.94976 -4.7899,0 0,-17.18096 c 0,-1.88493 -0.64459,-3.35508 -1.93377,-4.41506 -1.28919,-1.05538 -3.0081,-1.56694 -5.1515,-1.52546 -2.27442,0.0369 -4.43878,0.6913 -6.49309,1.95867 l 0,21.16281 -4.7899,0 0,-21.68359 c 2.75655,-1.7651 5.293,-2.91726 7.60933,-3.45647 2.18533,-0.50233 4.11387,-0.7512 5.77514,-0.7512 1.13721,0 2.20628,0.0968 3.21247,0.29034 1.88138,0.38252 3.41163,1.09224 4.59076,2.1338 1.31538,1.15215 1.97046,2.53474 1.97046,4.15237 l 0,19.31475 z"
         style="fill:#646464;fill-opacity:1"
         id="path56"
         inkscape:connector-curvature="0" />
      <path
         d="m 406.83381,138.24086 c -2.46444,0.0101 -4.81791,0.19491 -6.88873,0.51715 -6.10037,0.94777 -7.20796,2.93154 -7.20796,6.58994 l 0,4.83163 14.41592,0 0,1.61055 -14.41592,0 -5.41017,0 c -4.18967,0 -7.85827,2.21456 -9.00576,6.4274 -1.32361,4.82891 -1.38232,7.84222 0,12.88437 1.02474,3.75318 3.47195,6.4274 7.66161,6.4274 l 4.95653,0 0,-5.79205 c 0,-4.18442 4.11691,-7.87542 9.00575,-7.87542 l 14.39912,0 c 4.00821,0 7.20796,-2.90225 7.20796,-6.44218 l 0,-12.0717 c 0,-3.43568 -3.29582,-6.01654 -7.20796,-6.58994 -2.47644,-0.36252 -5.04596,-0.52722 -7.51039,-0.51715 z m -7.79603,3.886 c 1.48907,0 2.70509,1.08685 2.70509,2.4232 0,1.33163 -1.21602,2.40843 -2.70509,2.40843 -1.4944,0 -2.70508,-1.07681 -2.70508,-2.40843 0,-1.33635 1.21068,-2.4232 2.70508,-2.4232 z"
         style="fill:url(#linearGradient11025);fill-opacity:1"
         id="path1948"
         inkscape:connector-curvature="0" />
      <path
         d="m 423.34995,151.79013 0,5.62952 c 0,4.36449 -4.20764,8.03795 -9.00575,8.03795 l -14.39912,0 c -3.94416,0 -7.20796,2.9686 -7.20796,6.44218 l 0,12.0717 c 0,3.43568 3.39723,5.4565 7.20796,6.44218 4.56327,1.17998 8.93921,1.39323 14.39912,0 3.62927,-0.92407 7.20796,-2.78378 7.20796,-6.44218 l 0,-4.83163 -14.39912,0 0,-1.61055 14.39912,0 7.20797,0 c 4.18966,0 5.75091,-2.56997 7.20795,-6.4274 1.50508,-3.97117 1.44104,-7.79009 0,-12.88437 -1.03541,-3.66787 -3.01296,-6.4274 -7.20795,-6.4274 l -5.41018,0 z m -8.09845,30.57081 c 1.4944,0 2.70508,1.07681 2.70508,2.40843 0,1.33635 -1.21068,2.4232 -2.70508,2.4232 -1.48907,0 -2.70509,-1.08685 -2.70509,-2.4232 0,-1.33162 1.21602,-2.40843 2.70509,-2.40843 z"
         style="fill:url(#linearGradient11022);fill-opacity:1"
         id="path1950"
         inkscape:connector-curvature="0" />
      <path
         d="m 623.53329,147.93908 0.83979,0 0,-4.63186 1.9894,0 0,-0.5521 -4.81859,0 0,0.5521 1.9894,0 0,4.63186 m 3.57381,0 0.71749,0 0,-4.23034 1.55727,4.22981 0.79879,0 1.62274,-4.21547 0,4.216 0.78271,0 0,-5.18396 -1.03546,0 -1.77336,4.44114 -1.51242,-4.44114 -1.15776,0 0,5.18396"
         style="font-size:15.16445827px;font-style:normal;font-weight:normal;line-height:125%;fill:#646464;fill-opacity:1;stroke:none;font-family:Bitstream Vera Sans"
         id="text3004"
         inkscape:connector-curvature="0" />
      <path
         d="m 426.63515,198.61999 a 19.318535,3.294289 0 0 1 -38.63707,0 19.318535,3.294289 0 1 1 38.63707,0 z"
         style="opacity:0.44382019;fill:url(#radialGradient11018);fill-opacity:1;fill-rule:nonzero;stroke:none"
         id="path1894"
         inkscape:connector-curvature="0" />
      <g
         inkscape:label="Layer 1"
         id="layer1-9"
         transform="translate(478.48438,-775.64369)">
        <path
           style="fill:#cde8bc;fill-opacity:0.81220655;fill-rule:nonzero;stroke:none"
           d="M 25.75,992.67465 C 12.58329,994.54581 2.14555,1004.9447 0.28125,1018.1121 l 9.9375,1.4375 c 1.23652,-8.7935 8.15196,-15.7848 16.9375,-17.0312 L 25.75,992.67465 z m 8.5,0 -1.40625,9.87495 c 8.77284,1.2554 15.69891,8.2187 16.9375,17 l 9.9375,-1.4375 C 57.85445,1004.9447 47.41671,994.54581 34.25,992.67465 z m -24.03125,32.50005 -9.9375,1.4375 c 1.8643,13.1674 12.30204,23.5663 25.46875,25.4375 l 1.40625,-9.875 c -8.77284,-1.2554 -15.69891,-8.2187 -16.9375,-17 z m 39.5625,0 c -1.23859,8.7813 -8.16466,15.7446 -16.9375,17 l 1.40625,9.875 c 13.16671,-1.8712 23.60445,-12.2701 25.46875,-25.4375 l -9.9375,-1.4375 z"
           id="path2987"
           inkscape:export-xdpi="90"
           inkscape:export-ydpi="90"
           inkscape:connector-curvature="0" />
      </g>
      <g
         transform="matrix(1.2311028,0,0,1.2311028,441.90034,-927.93981)"
         id="g3915-6-3-7-4-6">
        <path
           style="fill:#ffffff;stroke:#000000;stroke-width:4.06139946;stroke-linecap:round;stroke-linejoin:round;stroke-miterlimit:4;stroke-opacity:1;stroke-dasharray:none"
           d="m 89.470687,1065.8714 c 3.726832,6.1263 -0.483788,10.0494 -6.15995,12.9466 -8.030164,4.0988 -27.897855,2.1019 -34.699927,-2.0136 -6.24272,-3.777 -9.012804,-9.3495 -6.040333,-14.1838"
           id="path3894-6-5-0-8-6"
           inkscape:connector-curvature="0"
           sodipodi:nodetypes="cssc" />
        <path
           style="fill:#ffffff;stroke:#000000;stroke-width:4.06139946;stroke-linecap:round;stroke-linejoin:round;stroke-miterlimit:4;stroke-opacity:1;stroke-dasharray:none"
           d="m 21.354167,1021.0446 c -0.857278,15.6815 13.892348,40.2979 31.364007,46.0182 9.021749,2.9538 29.32616,3.8464 36.493957,-1.431 12.273189,-9.0365 18.480019,-20.6858 21.285449,-35.0876 0.99446,-5.1051 1.70705,-10.9864 0.95737,-15.7018 -3.18982,-20.06352 -14.950717,-20.04837 -19.514002,-20.76045 -2.727222,-8.72459 -12.698539,-15.04429 -26.06769,-12.39072 -0.102903,-10.74585 0.225533,-17.36509 1.112237,-27.5361 1.483222,-17.01343 -27.985964,-20.84495 -26.490615,-0.0121 1.018326,14.18708 0.02688,25.67513 -2.49934,39.00011 -3.449562,1.03814 -15.746297,11.52876 -16.641373,27.90146 z"
           id="path3112-2-1-9-8-8"
           inkscape:connector-curvature="0"
           sodipodi:nodetypes="sssssccsscs" />
        <path
           sodipodi:nodetypes="cccc"
           inkscape:connector-curvature="0"
           id="path3882-6-0-9-4-4"
           d="m 63.837658,981.04376 c 0.0308,10.25346 1.214824,18.22508 7.225849,26.10544 -2.509089,-6.5752 -3.369203,-19.66596 -3.176554,-27.93864 z"
           style="font-size:medium;font-style:normal;font-variant:normal;font-weight:normal;font-stretch:normal;text-indent:0;text-align:start;text-decoration:none;line-height:normal;letter-spacing:normal;word-spacing:normal;text-transform:none;direction:ltr;block-progression:tb;writing-mode:lr-tb;text-anchor:start;baseline-shift:baseline;color:#000000;fill:#000000;fill-opacity:1;stroke:none;stroke-width:5.78096485;marker:none;visibility:visible;display:inline;overflow:visible;enable-background:accumulate;font-family:Sans;-inkscape-font-specification:Sans" />
        <path
           sodipodi:nodetypes="cccc"
           inkscape:connector-curvature="0"
           id="path3884-6-5-0-3-1"
           d="m 93.470999,992.23059 -3.809103,1.48624 c 1.928991,5.57681 4.050861,11.84227 7.113743,15.18307 -1.080443,-2.6051 -2.077135,-11.97832 -3.30464,-16.66931 z"
           style="font-size:medium;font-style:normal;font-variant:normal;font-weight:normal;font-stretch:normal;text-indent:0;text-align:start;text-decoration:none;line-height:normal;letter-spacing:normal;word-spacing:normal;text-transform:none;direction:ltr;block-progression:tb;writing-mode:lr-tb;text-anchor:start;baseline-shift:baseline;color:#000000;fill:#000000;fill-opacity:1;stroke:none;stroke-width:5.78096485;marker:none;visibility:visible;display:inline;overflow:visible;enable-background:accumulate;font-family:Sans;-inkscape-font-specification:Sans" />
        <path
           style="fill:none;stroke:#000000;stroke-width:4.06139946;stroke-linecap:round;stroke-linejoin:round;stroke-miterlimit:4;stroke-opacity:1;stroke-dasharray:none"
           d="m 79.641568,1058.2706 c 4.036934,-9.6783 3.975985,-12.4651 5.195081,-17.4048"
           id="path3886-8-8-3-8-0"
           inkscape:connector-curvature="0"
           sodipodi:nodetypes="cc" />
        <path
           style="fill:none;stroke:#000000;stroke-width:4.06139946;stroke-linecap:round;stroke-linejoin:round;stroke-miterlimit:4;stroke-opacity:1;stroke-dasharray:none"
           d="m 70.260373,1058.9664 c 1.692214,-11.4747 1.424195,-17.1521 1.855536,-24.8979"
           id="path3888-4-1-5-2-2"
           inkscape:connector-curvature="0"
           sodipodi:nodetypes="cc" />
        <path
           style="fill:none;stroke:#000000;stroke-width:4.06139946;stroke-linecap:round;stroke-linejoin:round;stroke-miterlimit:4;stroke-opacity:1;stroke-dasharray:none"
           d="m 59.041477,1059.499 c 0.0971,-7.9806 -0.598866,-11.7536 -1.048961,-16.8311"
           id="path3890-1-7-5-2-3"
           inkscape:connector-curvature="0"
           sodipodi:nodetypes="cc" />
        <path
           sodipodi:nodetypes="cccc"
           inkscape:connector-curvature="0"
           id="path3892-0-5-3-6-4"
           d="m 36.24871,991.71443 c -1.702568,12.09177 -6.196661,31.68167 -4.810655,38.21307 1.185012,-3.9899 8.355982,-33.63596 9.1333,-39.70318 z"
           style="font-size:medium;font-style:normal;font-variant:normal;font-weight:normal;font-stretch:normal;text-indent:0;text-align:start;text-decoration:none;line-height:normal;letter-spacing:normal;word-spacing:normal;text-transform:none;direction:ltr;block-progression:tb;writing-mode:lr-tb;text-anchor:start;baseline-shift:baseline;color:#000000;fill:#000000;fill-opacity:1;stroke:none;stroke-width:5.78096485;marker:none;visibility:visible;display:inline;overflow:visible;enable-background:accumulate;font-family:Sans;-inkscape-font-specification:Sans" />
      </g>
    </g>
  </g>
</svg>
