<?xml version="1.0" encoding="UTF-8" standalone="no"?>
<!-- Created with Inkscape (http://www.inkscape.org/) -->

<svg
   xmlns:dc="http://purl.org/dc/elements/1.1/"
   xmlns:cc="http://creativecommons.org/ns#"
   xmlns:rdf="http://www.w3.org/1999/02/22-rdf-syntax-ns#"
   xmlns:svg="http://www.w3.org/2000/svg"
   xmlns="http://www.w3.org/2000/svg"
   xmlns:xlink="http://www.w3.org/1999/xlink"
   xmlns:sodipodi="http://sodipodi.sourceforge.net/DTD/sodipodi-0.dtd"
   xmlns:inkscape="http://www.inkscape.org/namespaces/inkscape"
   width="18.9"
   height="18.9"
   id="svg2"
   version="1.1"
   inkscape:version="0.48.4 r9939"
   sodipodi:docname="ezLCD303-coord.svg"
   inkscape:export-filename="C:\Users\codeman\Documents\GitHub\ezLCD3xxPython\doxygen\ezLCDPython.png"
   inkscape:export-xdpi="120.04366"
   inkscape:export-ydpi="120.04366">
  <defs
     id="defs4">
    <filter
       id="filter3117"
       style="color-interpolation-filters:sRGB;"
       inkscape:label="Drop Shadow">
      <feFlood
         id="feFlood3119"
         flood-opacity="0.5"
         flood-color="rgb(0,0,0)"
         result="flood" />
      <feComposite
         id="feComposite3121"
         in2="SourceGraphic"
         in="flood"
         operator="in"
         result="composite1" />
      <feGaussianBlur
         id="feGaussianBlur3123"
         in="composite"
         stdDeviation="2"
         result="blur" />
      <feOffset
         id="feOffset3125"
         dx="4"
         dy="4"
         result="offset" />
      <feComposite
         id="feComposite3127"
         in2="offset"
         in="SourceGraphic"
         operator="over"
         result="composite2" />
    </filter>
    <filter
       id="filter3129"
       style="color-interpolation-filters:sRGB;"
       inkscape:label="Drop Shadow">
      <feFlood
         id="feFlood3131"
         flood-opacity="0.5"
         flood-color="rgb(0,0,0)"
         result="flood" />
      <feComposite
         in2="SourceGraphic"
         id="feComposite3133"
         in="flood"
         operator="in"
         result="composite1" />
      <feGaussianBlur
         id="feGaussianBlur3135"
         in="composite"
         stdDeviation="2"
         result="blur" />
      <feOffset
         id="feOffset3137"
         dx="4"
         dy="4"
         result="offset" />
      <feComposite
         in2="offset"
         id="feComposite3139"
         in="SourceGraphic"
         operator="over"
         result="composite2" />
    </filter>
    <filter
       id="filter3319"
       style="color-interpolation-filters:sRGB;"
       inkscape:label="Drop Shadow">
      <feFlood
         id="feFlood3321"
         flood-opacity="0.2"
         flood-color="rgb(0,0,0)"
         result="flood" />
      <feComposite
         id="feComposite3323"
         in2="SourceGraphic"
         in="flood"
         operator="in"
         result="composite1" />
      <feGaussianBlur
         id="feGaussianBlur3325"
         in="composite"
         stdDeviation="0.5"
         result="blur" />
      <feOffset
         id="feOffset3327"
         dx="3.8"
         dy="3.8"
         result="offset" />
      <feComposite
         id="feComposite3329"
         in2="offset"
         in="SourceGraphic"
         operator="over"
         result="composite2" />
    </filter>
    <filter
       id="filter3331"
       style="color-interpolation-filters:sRGB;"
       inkscape:label="Drop Shadow">
      <feFlood
         id="feFlood3333"
         flood-opacity="0.2"
         flood-color="rgb(0,0,0)"
         result="flood" />
      <feComposite
         id="feComposite3335"
         in2="SourceGraphic"
         in="flood"
         operator="in"
         result="composite1" />
      <feGaussianBlur
         id="feGaussianBlur3337"
         in="composite"
         stdDeviation="0.5"
         result="blur" />
      <feOffset
         id="feOffset3339"
         dx="3.8"
         dy="3.8"
         result="offset" />
      <feComposite
         id="feComposite3341"
         in2="offset"
         in="SourceGraphic"
         operator="over"
         result="composite2" />
    </filter>
    <radialGradient
       r="15.64474"
       fy="36.421131"
       fx="24.83713"
       cy="36.421131"
       cx="24.83713"
       gradientTransform="matrix(1,0,0,0.536723,0,16.87306)"
       gradientUnits="userSpaceOnUse"
       id="imagebot_10"
       xlink:href="#imagebot_13" />
    <linearGradient
       id="imagebot_13">
      <stop
         stop-color="#000000"
         offset="0"
         id="imagebot_168" />
      <stop
         stop-color="#000000"
         stop-opacity="0"
         offset="1"
         id="imagebot_167" />
    </linearGradient>
    <radialGradient
       r="16.9562"
       fy="22.454969"
       fx="11.31921"
       cy="22.454969"
       cx="11.31921"
       gradientTransform="matrix(0,-0.843022,1.020168,0,0.1007837,-23.539238)"
       gradientUnits="userSpaceOnUse"
       id="imagebot_8"
       xlink:href="#imagebot_12" />
    <linearGradient
       id="imagebot_12">
      <stop
         stop-color="#729fcf"
         id="imagebot_48"
         offset="0" />
      <stop
         stop-color="#3465a4"
         id="imagebot_47"
         offset="1" />
    </linearGradient>
    <radialGradient
       r="17.17141"
       fy="0.40011001"
       fx="24.53788"
       cy="0.40011001"
       cx="24.53788"
       gradientTransform="matrix(0,-2.046729,1.55761,0,2.2613567,0.807372)"
       gradientUnits="userSpaceOnUse"
       id="imagebot_6"
       xlink:href="#imagebot_11" />
    <linearGradient
       id="imagebot_11">
      <stop
         stop-color="#ffffff"
         offset="0"
         id="imagebot_166" />
      <stop
         stop-color="#ffffff"
         stop-opacity="0"
         offset="1"
         id="imagebot_165" />
    </linearGradient>
    <radialGradient
       r="15.64474"
       fy="36.421131"
       fx="24.83713"
       cy="36.421131"
       cx="24.83713"
       gradientTransform="matrix(1,0,0,0.536723,0,16.87306)"
       gradientUnits="userSpaceOnUse"
       id="imagebot_10-1"
       xlink:href="#imagebot_13-7" />
    <linearGradient
       id="imagebot_13-7">
      <stop
         stop-color="#000000"
         offset="0"
         id="imagebot_168-4" />
      <stop
         stop-color="#000000"
         stop-opacity="0"
         offset="1"
         id="imagebot_167-0" />
    </linearGradient>
    <radialGradient
       r="16.9562"
       fy="22.454969"
       fx="11.31921"
       cy="22.454969"
       cx="11.31921"
       gradientTransform="matrix(0,-0.843022,1.020168,0,0.1007837,-23.539238)"
       gradientUnits="userSpaceOnUse"
       id="imagebot_8-9"
       xlink:href="#imagebot_12-4" />
    <linearGradient
       id="imagebot_12-4">
      <stop
         stop-color="#729fcf"
         id="imagebot_48-8"
         offset="0" />
      <stop
         stop-color="#3465a4"
         id="imagebot_47-8"
         offset="1" />
    </linearGradient>
    <radialGradient
       r="17.17141"
       fy="0.40011001"
       fx="24.53788"
       cy="0.40011001"
       cx="24.53788"
       gradientTransform="matrix(0,-2.046729,1.55761,0,2.2613567,0.807372)"
       gradientUnits="userSpaceOnUse"
       id="imagebot_6-2"
       xlink:href="#imagebot_11-4" />
    <linearGradient
       id="imagebot_11-4">
      <stop
         stop-color="#ffffff"
         offset="0"
         id="imagebot_166-5" />
      <stop
         stop-color="#ffffff"
         stop-opacity="0"
         offset="1"
         id="imagebot_165-5" />
    </linearGradient>
    <radialGradient
       r="15.64474"
       fy="36.421131"
       fx="24.83713"
       cy="36.421131"
       cx="24.83713"
       gradientTransform="matrix(1,0,0,0.536723,0,16.87306)"
       gradientUnits="userSpaceOnUse"
       id="imagebot_10-8"
       xlink:href="#imagebot_13-0" />
    <linearGradient
       id="imagebot_13-0">
      <stop
         stop-color="#000000"
         offset="0"
         id="imagebot_168-6" />
      <stop
         stop-color="#000000"
         stop-opacity="0"
         offset="1"
         id="imagebot_167-8" />
    </linearGradient>
    <radialGradient
       r="16.9562"
       fy="22.454969"
       fx="11.31921"
       cy="22.454969"
       cx="11.31921"
       gradientTransform="matrix(0,-0.843022,1.020168,0,0.1007837,-23.539238)"
       gradientUnits="userSpaceOnUse"
       id="imagebot_8-1"
       xlink:href="#imagebot_12-9" />
    <linearGradient
       id="imagebot_12-9">
      <stop
         stop-color="#729fcf"
         id="imagebot_48-89"
         offset="0" />
      <stop
         stop-color="#3465a4"
         id="imagebot_47-7"
         offset="1" />
    </linearGradient>
    <radialGradient
       r="17.17141"
       fy="0.40011001"
       fx="24.53788"
       cy="0.40011001"
       cx="24.53788"
       gradientTransform="matrix(0,-2.046729,1.55761,0,2.2613567,0.807372)"
       gradientUnits="userSpaceOnUse"
       id="imagebot_6-22"
       xlink:href="#imagebot_11-8" />
    <linearGradient
       id="imagebot_11-8">
      <stop
         stop-color="#ffffff"
         offset="0"
         id="imagebot_166-2" />
      <stop
         stop-color="#ffffff"
         stop-opacity="0"
         offset="1"
         id="imagebot_165-8" />
    </linearGradient>
    <radialGradient
       r="15.64474"
       fy="36.421131"
       fx="24.83713"
       cy="36.421131"
       cx="24.83713"
       gradientTransform="matrix(1,0,0,0.536723,0,16.87306)"
       gradientUnits="userSpaceOnUse"
       id="imagebot_10-8-6"
       xlink:href="#imagebot_13-0-1" />
    <linearGradient
       id="imagebot_13-0-1">
      <stop
         stop-color="#000000"
         offset="0"
         id="imagebot_168-6-2" />
      <stop
         stop-color="#000000"
         stop-opacity="0"
         offset="1"
         id="imagebot_167-8-4" />
    </linearGradient>
    <radialGradient
       r="16.9562"
       fy="22.454969"
       fx="11.31921"
       cy="22.454969"
       cx="11.31921"
       gradientTransform="matrix(0,-0.843022,1.020168,0,0.1007837,-23.539238)"
       gradientUnits="userSpaceOnUse"
       id="imagebot_8-1-2"
       xlink:href="#imagebot_12-9-5" />
    <linearGradient
       id="imagebot_12-9-5">
      <stop
         stop-color="#729fcf"
         id="imagebot_48-89-8"
         offset="0" />
      <stop
         stop-color="#3465a4"
         id="imagebot_47-7-6"
         offset="1" />
    </linearGradient>
    <radialGradient
       r="17.17141"
       fy="0.40011001"
       fx="24.53788"
       cy="0.40011001"
       cx="24.53788"
       gradientTransform="matrix(0,-2.046729,1.55761,0,2.2613567,0.807372)"
       gradientUnits="userSpaceOnUse"
       id="imagebot_6-22-2"
       xlink:href="#imagebot_11-8-6" />
    <linearGradient
       id="imagebot_11-8-6">
      <stop
         stop-color="#ffffff"
         offset="0"
         id="imagebot_166-2-5" />
      <stop
         stop-color="#ffffff"
         stop-opacity="0"
         offset="1"
         id="imagebot_165-8-3" />
    </linearGradient>
    <radialGradient
       r="15.64474"
       fy="36.421131"
       fx="24.83713"
       cy="36.421131"
       cx="24.83713"
       gradientTransform="matrix(1,0,0,0.536723,0,16.87306)"
       gradientUnits="userSpaceOnUse"
       id="imagebot_10-8-1"
       xlink:href="#imagebot_13-0-19" />
    <linearGradient
       id="imagebot_13-0-19">
      <stop
         stop-color="#000000"
         offset="0"
         id="imagebot_168-6-7" />
      <stop
         stop-color="#000000"
         stop-opacity="0"
         offset="1"
         id="imagebot_167-8-6" />
    </linearGradient>
    <radialGradient
       r="16.9562"
       fy="22.454969"
       fx="11.31921"
       cy="22.454969"
       cx="11.31921"
       gradientTransform="matrix(0,-0.843022,1.020168,0,0.1007837,-23.539238)"
       gradientUnits="userSpaceOnUse"
       id="imagebot_8-1-29"
       xlink:href="#imagebot_12-9-52" />
    <linearGradient
       id="imagebot_12-9-52">
      <stop
         stop-color="#729fcf"
         id="imagebot_48-89-0"
         offset="0" />
      <stop
         stop-color="#3465a4"
         id="imagebot_47-7-0"
         offset="1" />
    </linearGradient>
    <radialGradient
       r="17.17141"
       fy="0.40011001"
       fx="24.53788"
       cy="0.40011001"
       cx="24.53788"
       gradientTransform="matrix(0,-2.046729,1.55761,0,2.2613567,0.807372)"
       gradientUnits="userSpaceOnUse"
       id="imagebot_6-22-3"
       xlink:href="#imagebot_11-8-9" />
    <linearGradient
       id="imagebot_11-8-9">
      <stop
         stop-color="#ffffff"
         offset="0"
         id="imagebot_166-2-1" />
      <stop
         stop-color="#ffffff"
         stop-opacity="0"
         offset="1"
         id="imagebot_165-8-8" />
    </linearGradient>
    <radialGradient
       r="15.64474"
       fy="36.421131"
       fx="24.83713"
       cy="36.421131"
       cx="24.83713"
       gradientTransform="matrix(1,0,0,0.536723,0,16.87306)"
       gradientUnits="userSpaceOnUse"
       id="imagebot_10-8-1-9"
       xlink:href="#imagebot_13-0-19-6" />
    <linearGradient
       id="imagebot_13-0-19-6">
      <stop
         stop-color="#000000"
         offset="0"
         id="imagebot_168-6-7-7" />
      <stop
         stop-color="#000000"
         stop-opacity="0"
         offset="1"
         id="imagebot_167-8-6-9" />
    </linearGradient>
    <radialGradient
       r="16.9562"
       fy="22.454969"
       fx="11.31921"
       cy="22.454969"
       cx="11.31921"
       gradientTransform="matrix(0,-0.843022,1.020168,0,0.1007837,-23.539238)"
       gradientUnits="userSpaceOnUse"
       id="imagebot_8-1-29-9"
       xlink:href="#imagebot_12-9-52-7" />
    <linearGradient
       id="imagebot_12-9-52-7">
      <stop
         stop-color="#729fcf"
         id="imagebot_48-89-0-6"
         offset="0" />
      <stop
         stop-color="#3465a4"
         id="imagebot_47-7-0-9"
         offset="1" />
    </linearGradient>
    <radialGradient
       r="17.17141"
       fy="0.40011001"
       fx="24.53788"
       cy="0.40011001"
       cx="24.53788"
       gradientTransform="matrix(0,-2.046729,1.55761,0,2.2613567,0.807372)"
       gradientUnits="userSpaceOnUse"
       id="imagebot_6-22-3-3"
       xlink:href="#imagebot_11-8-9-5" />
    <linearGradient
       id="imagebot_11-8-9-5">
      <stop
         stop-color="#ffffff"
         offset="0"
         id="imagebot_166-2-1-7" />
      <stop
         stop-color="#ffffff"
         stop-opacity="0"
         offset="1"
         id="imagebot_165-8-8-6" />
    </linearGradient>
    <radialGradient
       gradientTransform="matrix(2.382716e-8,-0.296405,1.43676,4.683673e-7,-128.544,150.5202)"
       gradientUnits="userSpaceOnUse"
       xlink:href="#linearGradient2795"
       id="radialGradient1480"
       fy="132.28575"
       fx="61.518883"
       r="29.036913"
       cy="132.28575"
       cx="61.518883" />
    <linearGradient
       gradientTransform="matrix(0.562541,0,0,0.567972,-9.399749,-5.305317)"
       gradientUnits="userSpaceOnUse"
       xlink:href="#linearGradient4689"
       id="linearGradient1478"
       y2="114.39767"
       x2="135.66525"
       y1="20.603781"
       x1="26.648937" />
    <linearGradient
       gradientTransform="matrix(0.562541,0,0,0.567972,-9.399749,-5.305317)"
       gradientUnits="userSpaceOnUse"
       xlink:href="#linearGradient4671"
       id="linearGradient1475"
       y2="137.27299"
       x2="112.03144"
       y1="192.35176"
       x1="150.96111" />
    <radialGradient
       gradientTransform="matrix(1,0,0,0.177966,0,108.7434)"
       gradientUnits="userSpaceOnUse"
       xlink:href="#linearGradient2795"
       id="radialGradient2801"
       fy="132.28575"
       fx="61.518883"
       r="29.036913"
       cy="132.28575"
       cx="61.518883" />
    <linearGradient
       gradientTransform="matrix(0.562541,0,0,0.567972,-11.5974,-7.60954)"
       gradientUnits="userSpaceOnUse"
       xlink:href="#linearGradient4689"
       id="linearGradient2258"
       y2="76.313133"
       x2="26.670298"
       y1="76.176224"
       x1="172.94208" />
    <linearGradient
       gradientTransform="matrix(0.562541,0,0,0.567972,-11.5974,-7.60954)"
       gradientUnits="userSpaceOnUse"
       xlink:href="#linearGradient4671"
       id="linearGradient2255"
       y2="144.75717"
       x2="-65.308502"
       y1="144.75717"
       x1="224.23996" />
    <linearGradient
       gradientTransform="translate(100.2702,99.61116)"
       gradientUnits="userSpaceOnUse"
       xlink:href="#linearGradient4671"
       id="linearGradient2250"
       y2="144.75717"
       x2="-65.308502"
       y1="144.75717"
       x1="224.23996" />
    <linearGradient
       gradientTransform="translate(100.2702,99.61116)"
       gradientUnits="userSpaceOnUse"
       xlink:href="#linearGradient4689"
       id="linearGradient2248"
       y2="76.313133"
       x2="26.670298"
       y1="77.475983"
       x1="172.94208" />
    <linearGradient
       gradientTransform="translate(100.2702,99.61116)"
       gradientUnits="userSpaceOnUse"
       xlink:href="#linearGradient4671"
       id="linearGradient2589"
       y2="144.75717"
       x2="-65.308502"
       y1="144.75717"
       x1="224.23996" />
    <linearGradient
       gradientTransform="translate(100.2702,99.61116)"
       gradientUnits="userSpaceOnUse"
       xlink:href="#linearGradient4689"
       id="linearGradient2587"
       y2="76.313133"
       x2="26.670298"
       y1="77.475983"
       x1="172.94208" />
    <linearGradient
       gradientTransform="translate(100.2702,99.61116)"
       gradientUnits="userSpaceOnUse"
       xlink:href="#linearGradient4689"
       id="linearGradient2990"
       y2="76.313133"
       x2="26.670298"
       y1="77.475983"
       x1="172.94208" />
    <linearGradient
       gradientTransform="translate(100.2702,99.61116)"
       gradientUnits="userSpaceOnUse"
       xlink:href="#linearGradient4671"
       id="linearGradient2987"
       y2="144.75717"
       x2="-65.308502"
       y1="144.75717"
       x1="224.23996" />
    <linearGradient
       id="linearGradient4689">
      <stop
         id="stop4691"
         offset="0"
         style="stop-color:#5a9fd4;stop-opacity:1" />
      <stop
         id="stop4693"
         offset="1"
         style="stop-color:#306998;stop-opacity:1" />
    </linearGradient>
    <linearGradient
       id="linearGradient4671">
      <stop
         id="stop4673"
         offset="0"
         style="stop-color:#ffd43b;stop-opacity:1" />
      <stop
         id="stop4675"
         offset="1"
         style="stop-color:#ffe873;stop-opacity:1" />
    </linearGradient>
    <linearGradient
       id="linearGradient3236">
      <stop
         id="stop3244"
         offset="0"
         style="stop-color:#f4f4f4;stop-opacity:1" />
      <stop
         id="stop3240"
         offset="1"
         style="stop-color:#ffffff;stop-opacity:1" />
    </linearGradient>
    <linearGradient
       id="linearGradient3676">
      <stop
         id="stop3678"
         offset="0"
         style="stop-color:#b2b2b2;stop-opacity:0.5" />
      <stop
         id="stop3680"
         offset="1"
         style="stop-color:#b3b3b3;stop-opacity:0" />
    </linearGradient>
    <linearGradient
       id="linearGradient2787">
      <stop
         id="stop2789"
         offset="0"
         style="stop-color:#7f7f7f;stop-opacity:0.5" />
      <stop
         id="stop2791"
         offset="1"
         style="stop-color:#7f7f7f;stop-opacity:0" />
    </linearGradient>
    <linearGradient
       id="linearGradient2795">
      <stop
         id="stop2797"
         offset="0"
         style="stop-color:#b8b8b8;stop-opacity:0.49803922" />
      <stop
         id="stop2799"
         offset="1"
         style="stop-color:#7f7f7f;stop-opacity:0" />
    </linearGradient>
  </defs>
  <sodipodi:namedview
     id="base"
     pagecolor="#ffffff"
     bordercolor="#666666"
     borderopacity="1.0"
     inkscape:pageopacity="0.0"
     inkscape:pageshadow="2"
     inkscape:zoom="1.2663947"
     inkscape:cx="203.68603"
     inkscape:cy="-5.4045187"
     inkscape:document-units="in"
     inkscape:current-layer="layer1"
     showgrid="true"
     inkscape:window-width="1730"
     inkscape:window-height="1081"
     inkscape:window-x="25"
     inkscape:window-y="25"
     inkscape:window-maximized="0"
     units="in"
     fit-margin-top="0"
     fit-margin-left="0"
     fit-margin-right="0"
     fit-margin-bottom="0">
    <inkscape:grid
       type="xygrid"
       id="grid3104"
       empspacing="5"
       visible="false"
       enabled="true"
       snapvisiblegridlinesonly="true"
       units="in"
       spacingx="0.0001in"
       spacingy="0.0001in"
       dotted="false"
       originx="-3.7715435in"
       originy="-8.6327716in" />
  </sodipodi:namedview>
  <metadata
     id="metadata7">
    <rdf:RDF>
      <cc:Work
         rdf:about="">
        <dc:format>image/svg+xml</dc:format>
        <dc:type
           rdf:resource="http://purl.org/dc/dcmitype/StillImage" />
        <dc:title></dc:title>
      </cc:Work>
    </rdf:RDF>
  </metadata>
  <g
     inkscape:label="Layer 1"
     inkscape:groupmode="layer"
     id="layer1"
     transform="translate(-339.43891,-256.51255)"
     style="display:inline">
    <g
       id="g3813"
       inkscape:export-filename="C:\Users\codeman\Documents\GitHub\ezLCD3xxPython\ezLCD303.png"
       inkscape:export-xdpi="89.966789"
       inkscape:export-ydpi="89.966789">
      <g
         transform="translate(0.1974108,-0.2961162)"
         id="g3343">
        <rect
           style="fill:#ffffff"
           id="rect2987"
           width="464.67017"
           height="251.52798"
           x="121.21831"
           y="115.95078" />
        <g
           id="g3063" />
        <rect
           y="48.996902"
           x="339.4389"
           height="226.44"
           width="367.20001"
           id="rect2989"
           style="fill:#ffeeaa;filter:url(#filter3129)" />
        <rect
           style="fill:#e6e6e6;filter:url(#filter3117)"
           id="rect2991"
           width="272.60999"
           height="226.44"
           x="388.01904"
           y="57.110046" />
        <rect
           style="fill:#1a1a1a;filter:url(#filter3331)"
           id="rect2993"
           width="272.42999"
           height="218.25"
           x="388.36566"
           y="57.015839" />
        <g
           id="g3305"
           style="filter:url(#filter3319)">
          <g
             transform="translate(126.19266,-79.346594)"
             id="g3088">
            <path
               sodipodi:type="arc"
               style="fill:#e6e6e6"
               id="path3031"
               sodipodi:cx="228.28244"
               sodipodi:cy="161.54576"
               sodipodi:rx="7.4377737"
               sodipodi:ry="7.4377737"
               d="m 235.72021,161.54576 a 7.4377737,7.4377737 0 1 1 -14.87554,0 7.4377737,7.4377737 0 1 1 14.87554,0 z"
               transform="matrix(1.2705415,0,0,1.2705415,-59.747643,-45.717055)" />
            <path
               sodipodi:type="arc"
               style="fill:#1a1a1a"
               id="path3039"
               sodipodi:cx="230.25"
               sodipodi:cy="159.86218"
               sodipodi:rx="3.25"
               sodipodi:ry="4"
               d="m 233.5,159.86218 a 3.25,4 0 1 1 -6.5,0 3.25,4 0 1 1 6.5,0 z"
               transform="matrix(1.5230769,0,0,1.2375,-120.41784,-38.121773)" />
          </g>
          <g
             inkscape:transform-center-x="-5.9889144"
             transform="translate(128.81993,-95.33469)"
             id="g3092">
            <path
               sodipodi:type="arc"
               style="fill:#e6e6e6"
               id="path3033"
               sodipodi:cx="227.90102"
               sodipodi:cy="341.00589"
               sodipodi:rx="8.5820465"
               sodipodi:ry="8.3913345"
               d="m 236.48306,341.00589 a 8.5820465,8.3913345 0 1 1 -17.16409,0 8.5820465,8.3913345 0 1 1 17.16409,0 z"
               transform="matrix(1.101136,0,0,1.1261618,-22.181034,-44.080566)" />
            <path
               sodipodi:type="arc"
               style="fill:#1a1a1a"
               id="path3041"
               sodipodi:cx="229.5"
               sodipodi:cy="340.86218"
               sodipodi:rx="3.5"
               sodipodi:ry="4"
               d="m 233,340.86218 a 3.5,4 0 1 1 -7,0 3.5,4 0 1 1 7,0 z"
               transform="matrix(1.4142857,0,0,1.2375,-95.821493,-81.911773)" />
          </g>
          <g
             transform="translate(134.28038,-100.83166)"
             id="g3100">
            <path
               sodipodi:type="arc"
               style="fill:#e6e6e6"
               id="path3035"
               sodipodi:cx="552.30237"
               sodipodi:cy="346.91797"
               sodipodi:rx="7.6284857"
               sodipodi:ry="7.0563493"
               d="m 559.93085,346.91797 a 7.6284857,7.0563493 0 1 1 -15.25697,0 7.6284857,7.0563493 0 1 1 15.25697,0 z"
               transform="matrix(1.238778,0,0,1.3392194,-130.05612,-120.07496)" />
            <path
               sodipodi:type="arc"
               style="fill:#1a1a1a"
               id="path3043"
               sodipodi:cx="554.75"
               sodipodi:cy="343.86218"
               sodipodi:rx="3.25"
               sodipodi:ry="3.5"
               d="m 558,343.86218 a 3.25,3.5 0 1 1 -6.5,0 3.25,3.5 0 1 1 6.5,0 z"
               transform="matrix(1.5230769,0,0,1.4142857,-290.69422,-141.58117)" />
          </g>
          <g
             inkscape:transform-center-x="-1.7781797"
             transform="translate(135.65429,-80.870686)"
             id="g3096">
            <path
               sodipodi:type="arc"
               style="fill:#e6e6e6"
               id="path3037"
               sodipodi:cx="550.77667"
               sodipodi:cy="161.16434"
               sodipodi:rx="8.3913345"
               sodipodi:ry="7.0563493"
               d="m 559.16801,161.16434 a 8.3913345,7.0563493 0 1 1 -16.78267,0 8.3913345,7.0563493 0 1 1 16.78267,0 z"
               transform="matrix(1.1261618,0,0,1.3392194,-68.428284,-55.063727)" />
            <path
               sodipodi:type="arc"
               style="fill:#1a1a1a"
               id="path3045"
               sodipodi:cx="552.75"
               sodipodi:cy="163.36218"
               sodipodi:rx="4.25"
               sodipodi:ry="4.5"
               d="m 557,163.36218 a 4.25,4.5 0 1 1 -8.5,0 4.25,4.5 0 1 1 8.5,0 z"
               transform="matrix(1.1647059,0,0,1.1,-91.944783,-18.825459)" />
          </g>
        </g>
      </g>
      <rect
         y="57.818592"
         x="390.00104"
         height="1.8"
         width="268.26196"
         id="rect3363"
         style="fill:#e3dedb" />
      <rect
         y="57.777657"
         x="657.78339"
         height="216.22566"
         width="1.7590195"
         id="rect3365"
         style="fill:#e3dedb" />
      <rect
         y="267.202"
         x="390.00946"
         height="1.8"
         width="269.28275"
         id="rect3367"
         style="fill:#e3dedb" />
      <rect
         y="57.791988"
         x="389.22998"
         height="211.27626"
         width="1.8"
         id="rect3369"
         style="fill:#e3dedb" />
      <path
         inkscape:connector-curvature="0"
         id="rect3371"
         d="m 542.87641,270.11621 0,4.0625 116.65625,0 0,-4.0625 -116.65625,0 z"
         style="fill:#e3dedb" />
      <rect
         y="268.62701"
         x="543.53033"
         height="15.52403"
         width="2.97"
         id="rect3374"
         style="fill:#e3dedb" />
      <rect
         y="268.72574"
         x="548.1059"
         height="15.384439"
         width="2.97"
         id="rect3376"
         style="fill:#e3dedb" />
      <rect
         y="268.58615"
         x="553.16504"
         height="15.52403"
         width="2.97"
         id="rect3378"
         style="fill:#e3dedb" />
      <rect
         y="274.03018"
         x="557.98553"
         height="10.090947"
         width="2.97"
         id="rect3380"
         style="fill:#e3dedb" />
      <rect
         transform="translate(339.43891,256.51255)"
         y="17.889444"
         x="203.44109"
         height="10.44"
         width="18.360001"
         id="rect3043"
         style="fill:#ec970f;fill-opacity:0.50264551" />
    </g>
    <flowRoot
       xml:space="preserve"
       id="flowRoot4538"
       style="font-size:40px;font-style:normal;font-weight:normal;line-height:125%;letter-spacing:0px;word-spacing:0px;fill:#000000;fill-opacity:1;stroke:none;font-family:Sans"
       transform="translate(339.43891,256.51255)"><flowRegion
         id="flowRegion4540"><rect
           id="rect4542"
           width="17.872051"
           height="157.46727"
           x="381.10944"
           y="-172.86229" /></flowRegion><flowPara
         id="flowPara4544">Y</flowPara></flowRoot>    <g
       id="g2303"
       transform="matrix(0.5376568,0,0,0.47282061,393.56931,124.42502)">
      <path
         d="m 184.61344,61.929363 c 0,-14.56215 -4.15226,-22.03817 -12.45678,-22.44755 -3.30427,-0.15595 -6.53055,0.37039 -9.66912,1.58878 -2.505,0.89673 -4.19124,1.78372 -5.07823,2.68045 l 0,34.75812 c 5.31216,3.33351 10.02976,4.88329 14.14303,4.63962 8.70415,-0.57508 13.0611,-7.64172 13.0611,-21.21942 z m 10.24419,0.60432 c 0,7.39804 -1.73498,13.53871 -5.22444,18.422 -3.88909,5.5266 -9.27923,8.37275 -16.17042,8.52871 -5.1952,0.1657 -10.54635,-1.46207 -16.05346,-4.87355 l 0,31.590317 -8.90884,-3.17755 0,-70.120567 c 1.46206,-1.79346 3.34325,-3.3335 5.62407,-4.63961 5.30242,-3.08983 11.74524,-4.67861 19.32848,-4.75658 l 0.12671,0.12671 c 6.93018,-0.08773 12.27159,2.75843 16.02422,8.5287 3.4992,5.29267 5.25368,12.07665 5.25368,20.37142 z"
         style="fill:#646464;fill-opacity:1"
         id="path46"
         inkscape:connector-curvature="0" />
      <path
         d="m 249.30487,83.265743 c 0,9.92254 -0.9942,16.794237 -2.9826,20.615097 -1.99816,3.82086 -5.79952,6.8717 -11.41385,9.14277 -4.55189,1.79346 -9.47417,2.76817 -14.75709,2.93387 l -1.47181,-5.61432 c 5.37064,-0.73103 9.15252,-1.46207 11.34561,-2.1931 4.31796,-1.46206 7.28108,-3.70389 8.90884,-6.706 1.30611,-2.446517 1.94942,-7.115367 1.94942,-14.026057 l 0,-2.3198 c -6.09193,2.76817 -12.47628,4.14251 -19.15303,4.14251 -4.38619,0 -8.25579,-1.37434 -11.58929,-4.14251 -3.74289,-3.01186 -5.61433,-6.83272 -5.61433,-11.46258 l 0,-37.07793 8.90884,-3.05084 0,37.3216 c 0,3.98656 1.28662,7.0569 3.85985,9.21101 2.57323,2.1541 5.90674,3.18729 9.99077,3.10932 4.08403,-0.08773 8.46047,-1.66676 13.10983,-4.75658 l 0,-43.54025 8.90884,0 0,48.41379 z"
         style="fill:#646464;fill-opacity:1"
         id="path48"
         inkscape:connector-curvature="0" />
      <path
         d="m 284.08249,88.997033 c -1.06243,0.08772 -2.03714,0.12671 -2.93387,0.12671 -5.03925,0 -8.96733,-1.19889 -11.77449,-3.60642 -2.79742,-2.40753 -4.20099,-5.73129 -4.20099,-9.97127 l 0,-35.08953 -6.10168,0 0,-5.60457 6.10168,0 0,-14.88381 8.89909,-3.16781 0,18.05162 10.01026,0 0,5.60457 -10.01026,0 0,34.84585 c 0,3.34325 0.89673,5.71179 2.6902,7.09588 1.54004,1.14041 3.98656,1.79347 7.32006,1.95917 l 0,4.63961 z"
         style="fill:#646464;fill-opacity:1"
         id="path50"
         inkscape:connector-curvature="0" />
      <path
         d="m 338.02288,88.266003 -8.90884,0 0,-34.38773 c 0,-3.49921 -0.81876,-6.51106 -2.44651,-9.02581 -1.88119,-2.84615 -4.49342,-4.26923 -7.84641,-4.26923 -4.08404,0 -9.19152,2.15411 -15.32242,6.46233 l 0,41.22044 -8.90885,0 0,-82.1972101 8.90885,-2.80716 0,37.4385701 c 5.6923,-4.14251 11.91093,-6.21864 18.66566,-6.21864 4.7176,0 8.53846,1.58877 11.46258,4.75658 2.93388,3.1678 4.39594,7.11537 4.39594,11.83296 l 0,37.1949 0,0 z"
         style="fill:#646464;fill-opacity:1"
         id="path52"
         inkscape:connector-curvature="0" />
      <path
         d="m 385.37424,60.525783 c 0,-5.59483 -1.06242,-10.21495 -3.17755,-13.87011 -2.51474,-4.45442 -6.42332,-6.80347 -11.70625,-7.04715 -9.76658,0.56534 -14.64012,7.56375 -14.64012,20.97574 0,6.15042 1.01369,11.28713 3.06057,15.41015 2.61223,5.25368 6.53056,7.84641 11.755,7.75869 9.80557,-0.07798 14.70835,-7.81717 14.70835,-23.22732 z m 9.75685,0.05848 c 0,7.96338 -2.03714,14.5914 -6.10168,19.88407 -4.47391,5.92623 -10.65357,8.89909 -18.53897,8.89909 -7.81716,0 -13.90909,-2.97286 -18.30503,-8.89909 -3.98656,-5.29267 -5.97497,-11.92069 -5.97497,-19.88407 0,-7.48576 2.15411,-13.78238 6.46232,-18.90935 4.5519,-5.43888 10.53661,-8.16806 17.93464,-8.16806 7.39805,0 13.42174,2.72918 18.06137,8.16806 4.3082,5.12697 6.46232,11.42359 6.46232,18.90935 z"
         style="fill:#646464;fill-opacity:1"
         id="path54"
         inkscape:connector-curvature="0" />
      <path
         d="m 446.20583,88.266003 -8.90884,0 0,-36.33715 c 0,-3.98656 -1.19889,-7.09588 -3.59667,-9.33772 -2.39779,-2.23208 -5.59483,-3.31401 -9.58139,-3.22628 -4.23023,0.07798 -8.25579,1.46206 -12.07664,4.14251 l 0,44.75864 -8.90884,0 0,-45.86006 c 5.12697,-3.73313 9.84456,-6.16991 14.15276,-7.31032 4.06455,-1.06243 7.65148,-1.58877 10.74131,-1.58877 2.11512,0 4.10352,0.20469 5.97496,0.61406 3.49921,0.80901 6.34535,2.31006 8.53845,4.51291 2.44651,2.43677 3.6649,5.3609 3.6649,8.78212 l 0,40.85006 z"
         style="fill:#646464;fill-opacity:1"
         id="path56"
         inkscape:connector-curvature="0" />
      <path
         d="m 60.510156,6.3979729 c -4.583653,0.021298 -8.960939,0.4122177 -12.8125,1.09375 C 36.35144,9.4962267 34.291407,13.691825 34.291406,21.429223 l 0,10.21875 26.8125,0 0,3.40625 -26.8125,0 -10.0625,0 c -7.792459,0 -14.6157592,4.683717 -16.7500002,13.59375 -2.46182,10.212966 -2.5710151,16.586023 0,27.25 1.9059283,7.937852 6.4575432,13.593748 14.2500002,13.59375 l 9.21875,0 0,-12.25 c 0,-8.849902 7.657144,-16.656248 16.75,-16.65625 l 26.78125,0 c 7.454951,0 13.406253,-6.138164 13.40625,-13.625 l 0,-25.53125 c 0,-7.266339 -6.12998,-12.7247775 -13.40625,-13.9375001 -4.605987,-0.7667253 -9.385097,-1.1150483 -13.96875,-1.09375 z m -14.5,8.2187501 c 2.769547,0 5.03125,2.298646 5.03125,5.125 -2e-6,2.816336 -2.261703,5.09375 -5.03125,5.09375 -2.779476,-1e-6 -5.03125,-2.277415 -5.03125,-5.09375 -1e-6,-2.826353 2.251774,-5.125 5.03125,-5.125 z"
         style="fill:url(#linearGradient1478);fill-opacity:1"
         id="path1948"
         inkscape:connector-curvature="0" />
      <path
         d="m 91.228906,35.054223 0,11.90625 c 0,9.230755 -7.825895,16.999999 -16.75,17 l -26.78125,0 c -7.335833,0 -13.406249,6.278483 -13.40625,13.625 l 0,25.531247 c 0,7.26634 6.318588,11.54032 13.40625,13.625 8.487331,2.49561 16.626237,2.94663 26.78125,0 6.750155,-1.95439 13.406253,-5.88761 13.40625,-13.625 l 0,-10.218747 -26.78125,0 0,-3.40625 26.78125,0 13.406254,0 c 7.79246,0 10.69625,-5.435408 13.40624,-13.59375 2.79933,-8.398886 2.68022,-16.475776 0,-27.25 -1.92578,-7.757441 -5.60387,-13.59375 -13.40624,-13.59375 l -10.062504,0 z m -15.0625,64.65625 c 2.779478,3e-6 5.03125,2.277417 5.03125,5.093747 -2e-6,2.82635 -2.251775,5.125 -5.03125,5.125 -2.76955,0 -5.03125,-2.29865 -5.03125,-5.125 2e-6,-2.81633 2.261697,-5.093747 5.03125,-5.093747 z"
         style="fill:url(#linearGradient1475);fill-opacity:1"
         id="path1950"
         inkscape:connector-curvature="0" />
      <path
         d="m 463.5544,26.909383 1.56195,0 0,-9.79624 3.70013,0 0,-1.16766 -8.96221,0 0,1.16766 3.70013,0 0,9.79624 m 6.64702,0 1.33447,0 0,-8.94703 2.89641,8.945906 1.48569,0 3.01816,-8.915576 0,8.9167 1.45579,0 0,-10.9639 -1.92589,0 -3.29831,9.392857 -2.81297,-9.392857 -2.15335,0 0,10.9639"
         style="font-size:15.16445827px;font-style:normal;font-weight:normal;line-height:125%;fill:#646464;fill-opacity:1;stroke:none;font-family:Bitstream Vera Sans"
         id="text3004"
         inkscape:connector-curvature="0" />
      <path
         d="m 110.46717,132.28575 a 48.948285,8.606678 0 1 1 -97.896571,0 48.948285,8.606678 0 1 1 97.896571,0 z"
         transform="matrix(0.73406,0,0,0.809524,16.24958,27.00935)"
         style="opacity:0.44382019;fill:url(#radialGradient1480);fill-opacity:1;fill-rule:nonzero;stroke:none"
         id="path1894"
         inkscape:connector-curvature="0" />
    </g>
  </g>
</svg>
